<svg width="1284" height="863" viewBox="0 0 1284 863" fill="none" xmlns="http://www.w3.org/2000/svg">
<path d="M1215.85 200H53.151C32.0808 200 15 235.04 15 278.265V585.735C15 628.96 32.0808 664 53.151 664H1215.85C1236.92 664 1254 628.96 1254 585.735V278.265C1254 235.04 1236.92 200 1215.85 200Z" fill="black"/>
<path d="M1198.59 254.041H70.4092C54.3557 254.041 41.3418 280.739 41.3418 313.672V550.33C41.3418 583.263 54.3557 609.961 70.4092 609.961H1198.59C1214.64 609.961 1227.66 583.263 1227.66 550.33V313.672C1227.66 280.739 1214.64 254.041 1198.59 254.041Z" fill="black"/>
<path d="M1198.59 254.041H70.4092C54.3557 254.041 41.3418 280.739 41.3418 313.672V550.33C41.3418 583.263 54.3557 609.961 70.4092 609.961H1198.59C1214.64 609.961 1227.66 583.263 1227.66 550.33V313.672C1227.66 280.739 1214.64 254.041 1198.59 254.041Z" stroke="#DDDDDD" stroke-width="8"/>
<path d="M333.72 481.98C327.28 481.98 321.493 480.86 316.36 478.62C311.32 476.287 307.353 473.113 304.46 469.1C301.567 464.993 300.073 460.28 299.98 454.96H313.56C314.027 459.533 315.893 463.407 319.16 466.58C322.52 469.66 327.373 471.2 333.72 471.2C339.787 471.2 344.547 469.707 348 466.72C351.547 463.64 353.32 459.72 353.32 454.96C353.32 451.227 352.293 448.193 350.24 445.86C348.187 443.527 345.62 441.753 342.54 440.54C339.46 439.327 335.307 438.02 330.08 436.62C323.64 434.94 318.46 433.26 314.54 431.58C310.713 429.9 307.4 427.287 304.6 423.74C301.893 420.1 300.54 415.247 300.54 409.18C300.54 403.86 301.893 399.147 304.6 395.04C307.307 390.933 311.087 387.76 315.94 385.52C320.887 383.28 326.533 382.16 332.88 382.16C342.027 382.16 349.493 384.447 355.28 389.02C361.16 393.593 364.473 399.66 365.22 407.22H351.22C350.753 403.487 348.793 400.22 345.34 397.42C341.887 394.527 337.313 393.08 331.62 393.08C326.3 393.08 321.96 394.48 318.6 397.28C315.24 399.987 313.56 403.813 313.56 408.76C313.56 412.307 314.54 415.2 316.5 417.44C318.553 419.68 321.027 421.407 323.92 422.62C326.907 423.74 331.06 425.047 336.38 426.54C342.82 428.313 348 430.087 351.92 431.86C355.84 433.54 359.2 436.2 362 439.84C364.8 443.387 366.2 448.24 366.2 454.4C366.2 459.16 364.94 463.64 362.42 467.84C359.9 472.04 356.167 475.447 351.22 478.06C346.273 480.673 340.44 481.98 333.72 481.98ZM397.688 418.42C400.208 414.033 403.941 410.393 408.888 407.5C413.928 404.513 419.761 403.02 426.388 403.02C433.201 403.02 439.361 404.653 444.868 407.92C450.468 411.187 454.855 415.807 458.028 421.78C461.201 427.66 462.788 434.52 462.788 442.36C462.788 450.107 461.201 457.013 458.028 463.08C454.855 469.147 450.468 473.86 444.868 477.22C439.361 480.58 433.201 482.26 426.388 482.26C419.855 482.26 414.068 480.813 409.028 477.92C404.081 474.933 400.301 471.247 397.688 466.86V517.4H384.948V404.28H397.688V418.42ZM449.768 442.36C449.768 436.573 448.601 431.533 446.268 427.24C443.935 422.947 440.761 419.68 436.748 417.44C432.828 415.2 428.488 414.08 423.728 414.08C419.061 414.08 414.721 415.247 410.708 417.58C406.788 419.82 403.615 423.133 401.188 427.52C398.855 431.813 397.688 436.807 397.688 442.5C397.688 448.287 398.855 453.373 401.188 457.76C403.615 462.053 406.788 465.367 410.708 467.7C414.721 469.94 419.061 471.06 423.728 471.06C428.488 471.06 432.828 469.94 436.748 467.7C440.761 465.367 443.935 462.053 446.268 457.76C448.601 453.373 449.768 448.24 449.768 442.36ZM474.797 442.36C474.797 434.52 476.384 427.66 479.557 421.78C482.731 415.807 487.071 411.187 492.577 407.92C498.177 404.653 504.384 403.02 511.197 403.02C517.917 403.02 523.751 404.467 528.697 407.36C533.644 410.253 537.331 413.893 539.757 418.28V404.28H552.637V481H539.757V466.72C537.237 471.2 533.457 474.933 528.417 477.92C523.471 480.813 517.684 482.26 511.057 482.26C504.244 482.26 498.084 480.58 492.577 477.22C487.071 473.86 482.731 469.147 479.557 463.08C476.384 457.013 474.797 450.107 474.797 442.36ZM539.757 442.5C539.757 436.713 538.591 431.673 536.257 427.38C533.924 423.087 530.751 419.82 526.737 417.58C522.817 415.247 518.477 414.08 513.717 414.08C508.957 414.08 504.617 415.2 500.697 417.44C496.777 419.68 493.651 422.947 491.317 427.24C488.984 431.533 487.817 436.573 487.817 442.36C487.817 448.24 488.984 453.373 491.317 457.76C493.651 462.053 496.777 465.367 500.697 467.7C504.617 469.94 508.957 471.06 513.717 471.06C518.477 471.06 522.817 469.94 526.737 467.7C530.751 465.367 533.924 462.053 536.257 457.76C538.591 453.373 539.757 448.287 539.757 442.5ZM569.407 442.5C569.407 434.567 570.993 427.66 574.167 421.78C577.34 415.807 581.727 411.187 587.327 407.92C593.02 404.653 599.507 403.02 606.787 403.02C616.213 403.02 623.96 405.307 630.027 409.88C636.187 414.453 640.247 420.8 642.207 428.92H628.487C627.18 424.253 624.613 420.567 620.787 417.86C617.053 415.153 612.387 413.8 606.787 413.8C599.507 413.8 593.627 416.32 589.147 421.36C584.667 426.307 582.427 433.353 582.427 442.5C582.427 451.74 584.667 458.88 589.147 463.92C593.627 468.96 599.507 471.48 606.787 471.48C612.387 471.48 617.053 470.173 620.787 467.56C624.52 464.947 627.087 461.213 628.487 456.36H642.207C640.153 464.2 636.047 470.5 629.887 475.26C623.727 479.927 616.027 482.26 606.787 482.26C599.507 482.26 593.02 480.627 587.327 477.36C581.727 474.093 577.34 469.473 574.167 463.5C570.993 457.527 569.407 450.527 569.407 442.5ZM729.206 439.7C729.206 442.127 729.066 444.693 728.786 447.4H667.466C667.932 454.96 670.499 460.887 675.166 465.18C679.926 469.38 685.666 471.48 692.386 471.48C697.892 471.48 702.466 470.22 706.106 467.7C709.839 465.087 712.452 461.633 713.946 457.34H727.666C725.612 464.713 721.506 470.733 715.346 475.4C709.186 479.973 701.532 482.26 692.386 482.26C685.106 482.26 678.572 480.627 672.786 477.36C667.092 474.093 662.612 469.473 659.346 463.5C656.079 457.433 654.446 450.433 654.446 442.5C654.446 434.567 656.032 427.613 659.206 421.64C662.379 415.667 666.812 411.093 672.506 407.92C678.292 404.653 684.919 403.02 692.386 403.02C699.666 403.02 706.106 404.607 711.706 407.78C717.306 410.953 721.599 415.34 724.586 420.94C727.666 426.447 729.206 432.7 729.206 439.7ZM716.046 437.04C716.046 432.187 714.972 428.033 712.826 424.58C710.679 421.033 707.739 418.373 704.006 416.6C700.366 414.733 696.306 413.8 691.826 413.8C685.386 413.8 679.879 415.853 675.306 419.96C670.826 424.067 668.259 429.76 667.606 437.04H716.046ZM758.762 418.56C761.376 413.987 765.202 410.253 770.242 407.36C775.282 404.467 781.022 403.02 787.462 403.02C794.369 403.02 800.576 404.653 806.082 407.92C811.589 411.187 815.929 415.807 819.102 421.78C822.276 427.66 823.862 434.52 823.862 442.36C823.862 450.107 822.276 457.013 819.102 463.08C815.929 469.147 811.542 473.86 805.942 477.22C800.436 480.58 794.276 482.26 787.462 482.26C780.836 482.26 775.002 480.813 769.962 477.92C765.016 475.027 761.282 471.34 758.762 466.86V481H746.022V377.4H758.762V418.56ZM810.842 442.36C810.842 436.573 809.676 431.533 807.342 427.24C805.009 422.947 801.836 419.68 797.822 417.44C793.902 415.2 789.562 414.08 784.802 414.08C780.136 414.08 775.796 415.247 771.782 417.58C767.862 419.82 764.689 423.133 762.262 427.52C759.929 431.813 758.762 436.807 758.762 442.5C758.762 448.287 759.929 453.373 762.262 457.76C764.689 462.053 767.862 465.367 771.782 467.7C775.796 469.94 780.136 471.06 784.802 471.06C789.562 471.06 793.902 469.94 797.822 467.7C801.836 465.367 805.009 462.053 807.342 457.76C809.676 453.373 810.842 448.24 810.842 442.36ZM835.872 442.36C835.872 434.52 837.458 427.66 840.632 421.78C843.805 415.807 848.145 411.187 853.652 407.92C859.252 404.653 865.458 403.02 872.272 403.02C878.992 403.02 884.825 404.467 889.772 407.36C894.718 410.253 898.405 413.893 900.832 418.28V404.28H913.712V481H900.832V466.72C898.312 471.2 894.532 474.933 889.492 477.92C884.545 480.813 878.758 482.26 872.132 482.26C865.318 482.26 859.158 480.58 853.652 477.22C848.145 473.86 843.805 469.147 840.632 463.08C837.458 457.013 835.872 450.107 835.872 442.36ZM900.832 442.5C900.832 436.713 899.665 431.673 897.332 427.38C894.998 423.087 891.825 419.82 887.812 417.58C883.892 415.247 879.552 414.08 874.792 414.08C870.032 414.08 865.692 415.2 861.772 417.44C857.852 419.68 854.725 422.947 852.392 427.24C850.058 431.533 848.892 436.573 848.892 442.36C848.892 448.24 850.058 453.373 852.392 457.76C854.725 462.053 857.852 465.367 861.772 467.7C865.692 469.94 870.032 471.06 874.792 471.06C879.552 471.06 883.892 469.94 887.812 467.7C891.825 465.367 894.998 462.053 897.332 457.76C899.665 453.373 900.832 448.287 900.832 442.5ZM947.981 416.74C950.221 412.353 953.394 408.947 957.501 406.52C961.701 404.093 966.788 402.88 972.761 402.88V416.04H969.401C955.121 416.04 947.981 423.787 947.981 439.28V481H935.241V404.28H947.981V416.74Z" fill="white"/>
</svg>
